<?xml version="1.0" encoding="utf-8"?>
<!-- Generator: Adobe Illustrator 27.2.0, SVG Export Plug-In . SVG Version: 6.00 Build 0)  -->
<svg version="1.1" id="Layer_1" xmlns="http://www.w3.org/2000/svg" xmlns:xlink="http://www.w3.org/1999/xlink" x="0px" y="0px"
	 viewBox="0 0 42.5 75" style="enable-background:new 0 0 42.5 75;" xml:space="preserve">
<style type="text/css">
	.st0{fill:#FFFFFF;}
</style>
<g>
	<path class="st0" d="M41.9,15.4H7.6l33.5-7.4c0.3-0.1,0.5-0.4,0.5-0.7L40,0.5c0-0.2-0.1-0.3-0.3-0.4C39.6,0,39.4,0,39.3,0L0.5,8.6
		C0.1,8.6-0.1,9,0,9.3l1.5,6.8v11.8C1.5,37,9,44.4,18.1,44.4h3.7v24.1c-4.7,0.1-9.3,2-12.9,5.5c-0.2,0.2-0.2,0.4-0.1,0.6
		C8.9,74.9,9.1,75,9.3,75h26.2c0.2,0,0.5-0.1,0.6-0.4c0.1-0.2,0-0.5-0.1-0.6c-3.6-3.6-8.2-5.4-12.9-5.5V44.4h2.9
		c9.1,0,16.6-7.4,16.6-16.5V16C42.5,15.7,42.2,15.4,41.9,15.4z M10.9,73.8c6.6-5.6,16.5-5.6,23.1,0H10.9z M41.3,22.5h-2.6l-3.8-5.9
		h6.4V22.5z M5.6,16.6l3.8,5.9H2.7v-5.9H5.6z M10.9,22.5l-3.8-5.9h7.8l3.8,5.9H10.9z M20.1,22.5l-3.8-5.9h7.9l3.8,5.9H20.1z
		 M29.4,22.5l-3.8-5.9h7.9l3.8,5.9H29.4z M27.2,9.9l-7.7,1.7l-5-4.9L22.2,5L27.2,9.9z M23.6,4.7L31.3,3l5,4.9l-7.7,1.7L23.6,4.7z
		 M18.1,11.9l-7.6,1.7l-5-4.9L13.1,7L18.1,11.9z M40.2,7l-2.6,0.6l-5-4.9L39,1.3L40.2,7z M4.1,9l5,4.9l-6.6,1.4L1.3,9.6L4.1,9z
		 M25.9,43.2h-7.8c-8.5,0-15.4-6.9-15.4-15.3v-4.2h38.6v4.2C41.3,36.3,34.4,43.2,25.9,43.2z"/>
	<path class="st0" d="M28.8,33l-10.1-5.8c-0.2-0.1-0.4-0.1-0.6,0c-0.2,0.1-0.3,0.3-0.3,0.5v11.6c0,0.2,0.1,0.4,0.3,0.5
		c0.1,0.1,0.2,0.1,0.3,0.1c0.1,0,0.2,0,0.3-0.1L28.8,34c0.2-0.1,0.3-0.3,0.3-0.5S29,33.1,28.8,33z M19,38.2v-9.5l8.3,4.7L19,38.2z"
		/>
</g>
</svg>
