<?xml version="1.0" encoding="utf-8"?>
<!-- Generator: Adobe Illustrator 27.2.0, SVG Export Plug-In . SVG Version: 6.00 Build 0)  -->
<svg version="1.1" id="Layer_1" xmlns="http://www.w3.org/2000/svg" xmlns:xlink="http://www.w3.org/1999/xlink" x="0px" y="0px"
	 viewBox="0 0 350 350" style="enable-background:new 0 0 350 350;" xml:space="preserve">
<g>
	<path d="M336.2,106.9c-8.8-20.8-21.4-39.6-37.5-55.6c-16.1-16.1-34.8-28.7-55.6-37.5C221.5,4.6,198.6,0,175,0
		c-23.6,0-46.5,4.6-68.1,13.8C86,22.6,67.3,35.2,51.3,51.3C35.2,67.3,22.6,86,13.8,106.9C4.6,128.5,0,151.4,0,175
		c0,23.6,4.6,46.5,13.8,68.1c8.8,20.8,21.4,39.6,37.5,55.6c16.1,16.1,34.8,28.7,55.6,37.5c21.6,9.1,44.5,13.8,68.1,13.8
		s46.5-4.6,68.1-13.8c20.8-8.8,39.6-21.4,55.6-37.5c16.1-16.1,28.7-34.8,37.5-55.6c9.1-21.6,13.8-44.5,13.8-68.1
		S345.4,128.5,336.2,106.9z M330.8,240.8c-8.5,20.1-20.7,38.2-36.2,53.7c-15.5,15.5-33.6,27.7-53.7,36.2
		c-20.8,8.8-43,13.3-65.8,13.3s-45-4.5-65.8-13.3c-20.1-8.5-38.2-20.7-53.7-36.2c-15.5-15.5-27.7-33.6-36.2-53.7
		C10.4,220,6,197.8,6,175s4.5-45,13.3-65.8C27.8,89.1,39.9,71,55.5,55.5C71,39.9,89.1,27.8,109.2,19.2C130,10.4,152.2,6,175,6
		s45,4.5,65.8,13.3c20.1,8.5,38.2,20.7,53.7,36.2c15.5,15.5,27.7,33.6,36.2,53.7c8.8,20.8,13.3,43,13.3,65.8S339.6,220,330.8,240.8z
		"/>
	<path d="M186.6,192.1c22.7,0,41.2-18.5,41.2-41.2v-29.7c0-0.8-0.7-1.5-1.5-1.5h-85.2l83.2-18.4c0.8-0.2,1.3-1,1.1-1.8l-3.8-17.2
		c-0.1-0.4-0.3-0.7-0.7-0.9c-0.3-0.2-0.7-0.3-1.1-0.2l-96.5,21.4c-0.4,0.1-0.7,0.3-0.9,0.7c-0.2,0.3-0.3,0.7-0.2,1.1l3.8,17.1V151
		c0,22.7,18.5,41.2,41.2,41.2h9.3v60.2c-11.7,0.4-23.2,5-32.1,13.9c-0.4,0.4-0.6,1.1-0.3,1.6c0.2,0.6,0.8,0.9,1.4,0.9h65.1
		c0.6,0,1.1-0.4,1.4-0.9c0.2-0.6,0.1-1.2-0.3-1.6c-8.9-8.9-20.4-13.5-32.1-13.9v-60.2H186.6z M149.3,265.8c16.5-14,40.9-14,57.4,0
		H149.3z M224.8,137.4h-6.5l-9.5-14.7h16V137.4z M136.2,122.8l9.5,14.7H129v-14.7H136.2z M149.2,137.4l-9.5-14.7H159l9.5,14.7H149.2
		z M172.1,137.4l-9.5-14.7h19.6l9.5,14.7H172.1z M195.2,137.4l-9.5-14.7h19.6l9.5,14.7H195.2z M189.8,106l-19.1,4.2l-12.4-12.2
		l19.1-4.2L189.8,106z M180.8,92.9l19.1-4.2l12.4,12.2l-19.1,4.2L180.8,92.9z M167.2,111l-18.8,4.2L136,102.9l18.8-4.2L167.2,111z
		 M222.2,98.8l-6.4,1.4l-12.4-12.2l15.6-3.5L222.2,98.8z M132.5,103.7l12.4,12.2l-16.3,3.6l-3.2-14.3L132.5,103.7z M129,151v-10.5
		h95.9V151c0,21.1-17.1,38.2-38.2,38.2h-19.4C146.1,189.2,129,172,129,151z"/>
	<path d="M194.6,164.9c0-0.5-0.3-1-0.7-1.3l-25.1-14.4c-0.5-0.3-1-0.3-1.5,0c-0.5,0.3-0.7,0.8-0.7,1.3v28.9c0,0.5,0.3,1,0.7,1.3
		c0.2,0.1,0.5,0.2,0.7,0.2c0.3,0,0.5-0.1,0.7-0.2l25.1-14.4C194.3,166,194.6,165.5,194.6,164.9z M169.4,176.8v-23.8l20.7,11.9
		L169.4,176.8z"/>
	<polygon points="88.8,68.4 84.4,62.7 90.6,64.6 91.7,63.8 91.5,57.4 95.8,63.1 98.8,60.8 89.8,49 87.6,50.7 87.9,60 79,57.1 
		76.8,58.8 85.8,70.7 	"/>
	<path d="M106.1,41.7c-2-0.6-4-0.3-5.9,0.8c-1.9,1.1-3.2,2.6-3.7,4.7c-0.6,2-0.3,4,0.8,5.9c1.1,1.9,2.6,3.1,4.6,3.7
		c2,0.5,4,0.3,5.9-0.8c1.9-1.1,3.2-2.6,3.7-4.7c0.6-2,0.3-4-0.7-5.9C109.7,43.5,108.1,42.3,106.1,41.7z M107.7,50.3
		c-0.3,1-0.9,1.8-1.9,2.4c-0.9,0.5-1.9,0.7-3,0.4c-1-0.3-1.8-0.9-2.4-1.9c-0.6-1-0.7-2-0.4-3c0.3-1,0.9-1.8,1.8-2.4
		c0.9-0.5,1.9-0.7,2.9-0.4c1,0.3,1.8,0.9,2.4,1.9C107.9,48.3,108,49.3,107.7,50.3z"/>
	<polygon points="123.3,48 123,32 119,33.7 119.7,43.6 112.9,36.3 108.9,38 120.2,49.4 	"/>
	<rect x="128.4" y="30.1" transform="matrix(0.9511 -0.3089 0.3089 0.9511 -5.2332 42.0997)" width="3.8" height="14.9"/>
	<polygon points="148.3,40.5 147.5,37.1 140.7,38.7 140.2,36.5 146.5,35 145.6,31.6 139.4,33.1 138.9,31 145.6,29.4 144.8,26 
		134.4,28.5 137.8,43 	"/>
	<polygon points="161.7,21.8 157.6,22.3 150.4,42.5 154.4,42 	"/>
	<path d="M172.1,38.2c1.4,0,2.7-0.4,3.8-1c1.1-0.6,2-1.4,2.7-2.3l-2.6-2.3c-1,1.3-2.3,2-3.8,2c-1.1,0-2.1-0.3-2.9-1.1
		c-0.8-0.8-1.2-1.7-1.2-2.9c0-1.2,0.3-2.2,1.1-3c0.8-0.8,1.7-1.2,2.9-1.2c1.3,0,2.6,0.6,3.8,1.8l2.3-2.6c-0.7-0.9-1.7-1.6-2.8-2.1
		c-1.1-0.5-2.4-0.7-3.7-0.7c-2.2,0.1-4,0.8-5.4,2.3c-1.4,1.5-2.1,3.4-2.1,5.6c0.1,2.2,0.8,4.1,2.3,5.4
		C168.1,37.6,170,38.3,172.1,38.2z"/>
	<path d="M187.6,38.8c2.2,0.2,4.1-0.4,5.7-1.7c1.6-1.3,2.5-3.1,2.7-5.2c0.2-2.2-0.4-4-1.7-5.7c-1.3-1.6-3.1-2.5-5.3-2.7
		c-2.2-0.2-4.1,0.4-5.7,1.7c-1.6,1.3-2.5,3.1-2.7,5.3c-0.2,2.2,0.4,4,1.7,5.6C183.6,37.7,185.4,38.6,187.6,38.8z M184.4,30.8
		c0.1-1.1,0.6-2,1.4-2.7c0.8-0.7,1.8-1,2.9-0.9c1.1,0.1,1.9,0.6,2.6,1.4c0.7,0.8,1,1.8,0.9,2.9c-0.1,1.1-0.6,2-1.4,2.7
		c-0.8,0.7-1.8,1-2.9,0.9c-1.1-0.1-2-0.6-2.6-1.4C184.5,32.9,184.3,31.9,184.4,30.8z"/>
	<path d="M204.5,41.4c1.4,0.3,2.7,0.3,3.9-0.1c1.3-0.3,2.3-0.9,3.2-1.6l-1.9-2.9c-1.3,1-2.7,1.4-4.1,1.1c-1.1-0.2-2-0.8-2.6-1.7
		c-0.6-0.9-0.8-1.9-0.5-3.1c0.2-1.2,0.8-2,1.7-2.7c0.9-0.6,1.9-0.8,3.1-0.5c1.3,0.3,2.4,1.1,3.3,2.6l2.9-2c-0.5-1-1.2-1.9-2.2-2.7
		c-1-0.7-2.1-1.3-3.4-1.5c-2.1-0.5-4-0.1-5.8,1c-1.7,1.1-2.9,2.8-3.3,5c-0.5,2.2-0.1,4.1,1,5.8C200.7,39.9,202.4,40.9,204.5,41.4z"
		/>
	<polygon points="216.6,44.4 217.7,41.2 219.8,39.8 221.2,46 225.6,47.4 223.1,37.8 230.1,33.2 225.8,31.8 219.4,36.1 221.3,30.3 
		217.7,29.1 213,43.2 	"/>
	<polygon points="241.7,42.4 243.2,39.1 232.2,34.1 230.7,37.4 234.5,39.1 229.8,49.4 233.3,50.9 237.9,40.7 	"/>
	<path d="M240,54.3l2.1-1.9l4.1,2.3l-0.6,2.8l3.4,1.9l2.8-15.6l-3-1.7l-12.1,10.2L240,54.3z M248,46.9l-1,4.5l-2.5-1.4L248,46.9z"/>
	<rect x="249" y="53.8" transform="matrix(0.5644 -0.8255 0.8255 0.5644 65.7551 235.9341)" width="14.9" height="3.8"/>
	<polygon points="265.3,71.8 267.6,69 261.9,64.5 269,55.7 266.1,53.3 256.7,64.9 	"/>
	<path d="M151.9,311.7c-0.7-1.2-2-1.9-3.8-2.3l-5.8-1.2l-3,14.6l3.7,0.8l0.9-4.6l1.9,0.4c2,0.4,3.5,0.2,4.6-0.5
		c1.1-0.7,1.8-1.8,2.1-3.3C152.8,314.1,152.6,312.8,151.9,311.7z M148.7,314.8c-0.1,0.5-0.3,0.9-0.7,1.1c-0.4,0.2-0.8,0.3-1.4,0.2
		l-2-0.4l0.7-3.3l2.1,0.4c0.5,0.1,0.9,0.3,1.1,0.7C148.7,313.9,148.8,314.3,148.7,314.8z"/>
	<path d="M158.9,311.1l-7,14.2l3.9,0.4l1.2-2.6l4.7,0.5l0.6,2.8l3.8,0.4l-3.7-15.4L158.9,311.1z M158.3,320l1.9-4.2l0.9,4.5
		L158.3,320z"/>
	<path d="M180.6,319.5c0.5-0.8,0.7-1.7,0.7-2.6c0-1.4-0.5-2.6-1.4-3.5c-0.9-0.9-2.3-1.4-4.1-1.3l-6.2,0.1l0.2,14.9l3.8-0.1l-0.1-4.9
		l1.5,0l2.7,4.9l4.3-0.1l-3.3-5.5C179.5,320.9,180.2,320.3,180.6,319.5z M177.2,317.9c-0.3,0.6-0.8,0.8-1.6,0.8l-2.3,0l-0.1-3.2
		l2.4,0c0.7-0.1,1.1,0.2,1.4,0.7C177.5,316.7,177.5,317.3,177.2,317.9z"/>
	<polygon points="194.8,310.7 182.8,311.9 183.2,315.5 187.3,315.1 188.4,326.3 192.2,326 191.1,314.7 195.2,314.3 	"/>
	<polygon points="205.2,308.7 203.7,314.8 200,309.8 195.7,310.6 202.7,319.3 203.7,324.2 207.4,323.5 206.4,318.6 209.5,307.8 	"/>
	<path d="M287.3,81.7c-0.5-0.6-1.5-0.7-2.1-0.2c-0.6,0.5-0.7,1.5-0.2,2.1c10.4,12.6,18.6,26.7,24.2,41.9C315,141.4,318,158,318,175
		c0,24.9-6.5,49.5-18.9,71c-12,20.9-29.1,38.5-49.7,51.1c-0.7,0.4-0.9,1.3-0.5,2c0.3,0.5,0.8,0.7,1.3,0.7c0.3,0,0.5-0.1,0.8-0.2
		c21-12.8,38.5-30.8,50.7-52.1c12.6-22,19.2-47,19.2-72.5c0-17.3-3-34.3-9-50.4C306.3,109,297.9,94.6,287.3,81.7z"/>
	<path d="M100.6,297.1C80,284.5,62.8,266.9,50.9,246C38.5,224.5,32,199.9,32,175c0-16.9,2.9-33.4,8.7-49.2
		c5.6-15.2,13.6-29.2,24-41.8c0.5-0.6,0.4-1.6-0.2-2.1c-0.6-0.5-1.6-0.4-2.1,0.2C51.8,95,43.6,109.3,37.9,124.8
		c-5.9,16.1-8.9,32.9-8.9,50.2c0,25.5,6.7,50.5,19.2,72.5C60.5,268.8,78,286.8,99,299.6c0.2,0.1,0.5,0.2,0.8,0.2
		c0.5,0,1-0.3,1.3-0.7C101.5,298.4,101.3,297.5,100.6,297.1z"/>
	<path d="M87.2,182.1C87.3,182.1,87.3,182.1,87.2,182.1c0.9-0.1,1.5-0.8,1.5-1.6l0-0.4c0-0.8-0.8-1.5-1.6-1.4
		c-0.8,0-1.4,0.8-1.4,1.6l0,0.4C85.8,181.5,86.5,182.1,87.2,182.1z"/>
	<path d="M105.1,225.9c-0.5-0.7-1.4-0.8-2.1-0.3c-0.7,0.5-0.8,1.4-0.3,2.1l0.2,0.3c0.3,0.4,0.7,0.6,1.2,0.6c0.3,0,0.6-0.1,0.9-0.3
		c0.7-0.5,0.8-1.4,0.3-2.1L105.1,225.9z"/>
	<path d="M94.2,213.4c0.3,0.5,0.8,0.8,1.3,0.8c0.2,0,0.4,0,0.6-0.1c0.7-0.4,1.1-1.2,0.7-2l-0.2-0.4c-0.4-0.7-1.2-1.1-2-0.7
		c-0.7,0.4-1.1,1.2-0.7,2L94.2,213.4z"/>
	<path d="M95.8,140.4l0.2-0.4c0.3-0.8,0-1.6-0.8-2c-0.8-0.3-1.6,0-2,0.8l-0.2,0.4c-0.3,0.8,0,1.6,0.8,2c0.2,0.1,0.4,0.1,0.6,0.1
		C95,141.3,95.5,140.9,95.8,140.4z"/>
	<path d="M122.6,243.8l-0.3-0.2c-0.7-0.5-1.6-0.4-2.1,0.3c-0.5,0.7-0.4,1.6,0.3,2.1l0.3,0.2c0.3,0.2,0.6,0.3,0.9,0.3
		c0.4,0,0.9-0.2,1.2-0.6C123.4,245.2,123.3,244.3,122.6,243.8z"/>
	<path d="M116,238.2c-0.6-0.6-1.5-0.5-2.1,0.1c-0.6,0.6-0.5,1.5,0.1,2.1l0.3,0.3c0.3,0.3,0.6,0.4,1,0.4c0.4,0,0.8-0.2,1.1-0.5
		c0.6-0.6,0.5-1.5-0.1-2.1L116,238.2z"/>
	<path d="M110.3,232.3c-0.5-0.6-1.5-0.7-2.1-0.1c-0.6,0.5-0.7,1.5-0.1,2.1l0.3,0.3c0.3,0.3,0.7,0.5,1.1,0.5c0.4,0,0.7-0.1,1-0.4
		c0.6-0.5,0.7-1.5,0.1-2.1L110.3,232.3z"/>
	<path d="M87.8,154.9l-0.1,0.4c-0.2,0.8,0.3,1.6,1.1,1.8c0.1,0,0.2,0,0.3,0c0.7,0,1.3-0.5,1.5-1.2l0.1-0.4c0.2-0.8-0.3-1.6-1.1-1.8
		C88.8,153.6,88,154.1,87.8,154.9z"/>
	<path d="M86.3,163.3l-0.1,0.4c-0.1,0.8,0.5,1.6,1.3,1.7c0.1,0,0.1,0,0.2,0c0.7,0,1.4-0.6,1.5-1.3l0-0.4c0.1-0.8-0.5-1.6-1.3-1.7
		C87.2,161.9,86.4,162.5,86.3,163.3z"/>
	<path d="M91,149c0.2,0.1,0.3,0.1,0.5,0.1c0.6,0,1.2-0.4,1.4-1l0.1-0.4c0.3-0.8-0.2-1.6-0.9-1.9c-0.8-0.3-1.6,0.2-1.9,0.9l-0.1,0.4
		C89.8,147.9,90.2,148.8,91,149z"/>
	<path d="M91,205.6c0.2,0.6,0.8,1,1.4,1c0.2,0,0.3,0,0.5-0.1c0.8-0.3,1.2-1.1,0.9-1.9l-0.1-0.4c-0.3-0.8-1.1-1.2-1.9-0.9
		c-0.8,0.3-1.2,1.1-0.9,1.9L91,205.6z"/>
	<path d="M98.1,220.6l0.2,0.3c0.3,0.5,0.8,0.7,1.3,0.7c0.3,0,0.5-0.1,0.8-0.2c0.7-0.4,0.9-1.3,0.5-2l-0.2-0.3
		c-0.4-0.7-1.3-0.9-2-0.5C97.9,218.9,97.6,219.9,98.1,220.6z"/>
	<path d="M88.4,197.5c0.2,0.7,0.8,1.1,1.4,1.1c0.1,0,0.2,0,0.4,0c0.8-0.2,1.3-1,1.1-1.8l-0.1-0.4c-0.2-0.8-1-1.3-1.8-1.1
		c-0.8,0.2-1.3,1-1.1,1.8L88.4,197.5z"/>
	<path d="M86.7,189.2c0.1,0.7,0.7,1.3,1.5,1.3c0.1,0,0.2,0,0.2,0c0.8-0.1,1.4-0.9,1.2-1.7l-0.1-0.4c-0.1-0.8-0.9-1.4-1.7-1.2
		c-0.8,0.1-1.4,0.9-1.2,1.7L86.7,189.2z"/>
	<path d="M85.6,171.8l0,0.4c0,0.8,0.6,1.5,1.4,1.5c0,0,0,0,0,0c0.8,0,1.5-0.6,1.5-1.4l0-0.4c0-0.8-0.6-1.5-1.4-1.5
		C86.4,170.3,85.7,171,85.6,171.8z"/>
	<path d="M260.6,163.2l0.1,0.4c0.1,0.7,0.7,1.3,1.5,1.3c0.1,0,0.1,0,0.2,0c0.8-0.1,1.4-0.9,1.3-1.7l-0.1-0.4
		c-0.1-0.8-0.9-1.4-1.7-1.3C261.1,161.6,260.5,162.3,260.6,163.2z"/>
	<path d="M259.7,146.2c-0.3-0.8-1.1-1.2-1.9-0.9c-0.8,0.3-1.2,1.1-0.9,1.9l0.1,0.4c0.2,0.6,0.8,1,1.4,1c0.2,0,0.3,0,0.5-0.1
		c0.8-0.3,1.2-1.1,0.9-1.9L259.7,146.2z"/>
	<path d="M257.3,206c0.2,0.1,0.3,0.1,0.5,0.1c0.6,0,1.2-0.4,1.4-1l0.1-0.4c0.3-0.8-0.1-1.6-0.9-1.9c-0.8-0.3-1.6,0.1-1.9,0.9
		l-0.1,0.4C256.2,204.8,256.6,205.7,257.3,206z"/>
	<path d="M247.2,225.2c-0.7-0.5-1.6-0.3-2.1,0.3l-0.2,0.3c-0.5,0.7-0.3,1.6,0.3,2.1c0.3,0.2,0.6,0.3,0.9,0.3c0.5,0,0.9-0.2,1.2-0.6
		l0.2-0.3C248.1,226.6,247.9,225.6,247.2,225.2z"/>
	<path d="M260.3,198.1c0.7,0,1.3-0.4,1.4-1.1l0.1-0.4c0.2-0.8-0.3-1.6-1.1-1.8c-0.8-0.2-1.6,0.3-1.8,1.1l-0.1,0.4
		c-0.2,0.8,0.3,1.6,1.1,1.8C260,198,260.1,198.1,260.3,198.1z"/>
	<path d="M255.4,210.6c-0.7-0.3-1.6,0-2,0.7l-0.2,0.4c-0.3,0.7,0,1.6,0.7,2c0.2,0.1,0.4,0.1,0.6,0.1c0.6,0,1.1-0.3,1.3-0.9l0.2-0.4
		C256.5,211.8,256.2,210.9,255.4,210.6z"/>
	<path d="M256.7,138.7l-0.2-0.4c-0.3-0.8-1.2-1.1-2-0.7c-0.7,0.3-1.1,1.2-0.7,2l0.2,0.4c0.2,0.6,0.8,0.9,1.4,0.9
		c0.2,0,0.4,0,0.6-0.1C256.7,140.3,257.1,139.4,256.7,138.7z"/>
	<path d="M262,154.4c-0.2-0.8-1-1.3-1.8-1.1c-0.8,0.2-1.3,1-1.1,1.8l0.1,0.4c0.2,0.7,0.8,1.2,1.4,1.2c0.1,0,0.2,0,0.3,0
		c0.8-0.2,1.3-1,1.1-1.8L262,154.4z"/>
	<path d="M249.6,218.6l-0.2,0.3c-0.4,0.7-0.2,1.6,0.5,2c0.2,0.1,0.5,0.2,0.8,0.2c0.5,0,1-0.3,1.3-0.7l0.2-0.4c0.4-0.7,0.2-1.6-0.5-2
		C251,217.7,250.1,217.9,249.6,218.6z"/>
	<path d="M234.3,237.8l-0.3,0.3c-0.6,0.6-0.6,1.5-0.1,2.1c0.3,0.3,0.7,0.5,1.1,0.5c0.4,0,0.7-0.1,1-0.4l0.3-0.3
		c0.6-0.6,0.6-1.5,0.1-2.1C235.9,237.3,234.9,237.3,234.3,237.8z"/>
	<path d="M228.1,243.2l-0.3,0.2c-0.7,0.5-0.8,1.4-0.3,2.1c0.3,0.4,0.7,0.6,1.2,0.6c0.3,0,0.6-0.1,0.9-0.3l0.3-0.2
		c0.6-0.5,0.8-1.4,0.3-2.1C229.7,242.8,228.8,242.7,228.1,243.2z"/>
	<path d="M263.4,188.6l0.1-0.4c0.1-0.8-0.4-1.6-1.3-1.7c-0.8-0.1-1.6,0.4-1.7,1.3l-0.1,0.4c-0.1,0.8,0.4,1.6,1.2,1.7
		c0.1,0,0.2,0,0.2,0C262.6,189.9,263.3,189.3,263.4,188.6z"/>
	<path d="M264.3,180.1l0-0.4c0-0.8-0.6-1.5-1.4-1.6c-0.8,0-1.5,0.6-1.6,1.4l0,0.4c0,0.8,0.6,1.5,1.4,1.6c0,0,0.1,0,0.1,0
		C263.6,181.5,264.2,180.9,264.3,180.1z"/>
	<path d="M240,231.9l-0.3,0.3c-0.5,0.6-0.5,1.6,0.1,2.1c0.3,0.3,0.6,0.4,1,0.4c0.4,0,0.8-0.2,1.1-0.5l0.3-0.3
		c0.5-0.6,0.5-1.6-0.1-2.1C241.5,231.2,240.6,231.3,240,231.9z"/>
	<path d="M264.3,171.2c0-0.8-0.7-1.5-1.5-1.4c-0.8,0-1.5,0.7-1.4,1.5l0,0.4c0,0.8,0.7,1.4,1.5,1.4c0,0,0,0,0.1,0
		c0.8,0,1.5-0.7,1.4-1.5L264.3,171.2z"/>
</g>
</svg>
