<?xml version="1.0" encoding="utf-8"?>
<!-- Generator: Adobe Illustrator 27.2.0, SVG Export Plug-In . SVG Version: 6.00 Build 0)  -->
<svg version="1.1" id="Layer_1" xmlns="http://www.w3.org/2000/svg" xmlns:xlink="http://www.w3.org/1999/xlink" x="0px" y="0px"
	 viewBox="0 0 273.4 35.5" style="enable-background:new 0 0 273.4 35.5;" xml:space="preserve">
<style type="text/css">
	.st0{fill:url(#SVGID_1_);}
</style>
<g id="Layer_2_00000085238492577831589300000011060141098578595240_">
	<g id="Layer_1-2">
		
			<linearGradient id="SVGID_1_" gradientUnits="userSpaceOnUse" x1="0" y1="20.2148" x2="273.42" y2="20.2148" gradientTransform="matrix(1 0 0 -1 0 38)">
			<stop  offset="0" style="stop-color:#90CEA1"/>
			<stop  offset="0.56" style="stop-color:#3CBEC9"/>
			<stop  offset="1" style="stop-color:#00B3E5"/>
		</linearGradient>
		<path class="st0" d="M191.9,35.4h63.9c9.8,0,17.7-7.9,17.7-17.7c0,0,0,0,0,0l0,0c0-9.8-7.9-17.7-17.6-17.7c0,0,0,0,0,0h-63.9
			c-9.8,0-17.7,7.9-17.7,17.7c0,0,0,0,0,0l0,0C174.2,27.5,182.1,35.4,191.9,35.4L191.9,35.4z M10.1,35.4h7.8V6.9H28V0H0v6.9h10.1
			V35.4z M38.2,35.4H46V8.2h0.1l9,27.2h6l9.3-27.2h0.1v27.2h7.8V0H66.4l-8.2,23.1h-0.1L50,0H38.2V35.4z M89.1,0.1h11.7
			c2.7,0,5.4,0.3,8.1,1c2.4,0.6,4.7,1.6,6.7,3.1c1.9,1.5,3.5,3.3,4.5,5.5c1.2,2.6,1.8,5.4,1.7,8.2c0.1,2.6-0.5,5.2-1.6,7.6
			c-1,2.1-2.5,4-4.4,5.5c-1.9,1.5-4,2.7-6.3,3.4c-2.4,0.8-5,1.2-7.6,1.2H89.1V0.1z M96.9,28.3h4c1.7,0,3.4-0.2,5-0.5
			c1.5-0.3,2.8-0.9,4.1-1.8c1.2-0.9,2.1-2,2.7-3.4c0.7-1.6,1-3.3,1-5.1c0-1.6-0.3-3.1-1-4.5c-0.6-1.2-1.5-2.3-2.6-3.2
			c-1.2-0.9-2.4-1.5-3.8-1.9c-1.5-0.4-3.1-0.6-4.7-0.6h-4.6V28.3z M133.1,0.1h13.2c1.5,0,3.1,0.1,4.6,0.3c1.5,0.2,2.9,0.6,4.2,1.3
			c1.2,0.6,2.3,1.6,3,2.7c0.8,1.4,1.2,3,1.1,4.7c0.1,1.8-0.5,3.6-1.7,5c-1.2,1.4-2.7,2.3-4.4,2.8V17c1.1,0.2,2.2,0.5,3.2,1
			c0.9,0.5,1.8,1.1,2.4,1.9c0.7,0.8,1.2,1.7,1.6,2.6c0.4,1,0.6,2.1,0.6,3.2c0.1,1.6-0.4,3.3-1.2,4.7c-0.8,1.2-1.8,2.3-3.1,3
			c-1.3,0.8-2.8,1.3-4.3,1.6c-1.6,0.3-3.1,0.5-4.7,0.5h-14.5L133.1,0.1z M140.9,14.3h5.6c0.6,0,1.2-0.1,1.8-0.2
			c0.6-0.1,1.1-0.3,1.6-0.6c0.5-0.3,0.9-0.7,1.1-1.2c0.3-0.6,0.4-1.2,0.4-1.8c0-0.6-0.1-1.3-0.4-1.8c-0.3-0.5-0.7-0.9-1.2-1.1
			c-0.6-0.3-1.2-0.5-1.8-0.6c-0.6-0.1-1.2-0.2-1.9-0.2h-5.3L140.9,14.3z M140.9,28.9h7c0.6,0,1.2-0.1,1.8-0.2
			c0.6-0.1,1.2-0.4,1.7-0.7c0.5-0.3,0.9-0.8,1.2-1.3c0.3-0.6,0.5-1.3,0.5-2c0-0.7-0.2-1.4-0.6-2c-0.4-0.5-1-0.9-1.6-1.2
			c-0.6-0.3-1.3-0.5-2-0.5c-0.7-0.1-1.4-0.1-2.1-0.1h-5.9L140.9,28.9z"/>
	</g>
</g>
</svg>
